<svg width="101" height="101" viewBox="0 0 101 101" fill="none" xmlns="http://www.w3.org/2000/svg">
  <path d="M81.8031 61.7607L77.9034 69.3589L77.2994 69.126C77.0895 69.0455 76.8767 68.9621 76.661 68.8902C68.0188 65.8647 58.4937 69.1116 53.501 76.7846L53.1473 77.3282L45.3018 73.3019L45.7044 72.6433C47.3264 69.9945 49.3539 67.642 51.7323 65.6547C54.3926 63.4288 57.4008 61.7262 60.6765 60.5816L36.3777 48.1144C37.3613 51.4447 37.7294 54.8786 37.4734 58.3384C37.2434 61.43 36.5158 64.4468 35.3107 67.3084L35.0088 68.0216L27.1632 63.9953L27.399 63.3914C30.7208 54.8585 27.8046 45.227 20.307 39.9726C20.1201 39.8403 19.9302 39.7167 19.7404 39.5873L19.1969 39.2335L23.0995 31.6353L23.7063 31.8711C23.9192 31.9545 24.1291 32.035 24.3448 32.1069C32.987 35.1353 42.5121 31.8855 47.5047 24.2154L47.8585 23.669L55.704 27.6953L55.2985 28.3567C53.6794 31.0026 51.6518 33.3551 49.2734 35.3424C46.432 37.7179 43.1966 39.501 39.6563 40.6399C39.455 40.706 39.2508 40.7693 39.0495 40.8297L65.0364 54.1654C64.9674 53.9641 64.9013 53.7627 64.8351 53.5614C63.6962 50.024 63.2562 46.3543 63.5294 42.6616C63.7595 39.57 64.4871 36.5531 65.6921 33.6916L65.9941 32.9784L73.8397 37.0047L73.6038 37.6115C70.2821 46.1444 73.1983 55.773 80.6988 61.0274C80.8828 61.1568 81.0698 61.2862 81.2625 61.4099L81.8031 61.7607Z" fill="#1A2BC2"/>
  <path d="M50.5014 101C22.6538 101 0 78.3463 0 50.5014C0 22.6537 22.6538 0 50.5014 0C78.3491 0 101.003 22.6537 101.003 50.5014C101 78.3463 78.3463 101 50.5014 101ZM50.5014 6.03947C25.9841 6.03947 6.03947 25.9841 6.03947 50.5014C6.03947 75.0188 25.9841 94.9605 50.5014 94.9605C75.0159 94.9605 94.9634 75.0159 94.9634 50.5014C94.9634 25.987 75.0159 6.03947 50.5014 6.03947Z" fill="#1A2BC2"/>
</svg>
