<svg width="351" height="101" viewBox="0 0 351 101" fill="none" xmlns="http://www.w3.org/2000/svg">
<path d="M81.8031 61.7607L77.9034 69.3589L77.2994 69.126C77.0895 69.0455 76.8767 68.9621 76.661 68.8902C68.0188 65.8647 58.4937 69.1116 53.501 76.7846L53.1473 77.3282L45.3018 73.3019L45.7044 72.6433C47.3264 69.9945 49.3539 67.642 51.7323 65.6547C54.3926 63.4288 57.4008 61.7262 60.6765 60.5816L36.3777 48.1144C37.3613 51.4447 37.7294 54.8786 37.4734 58.3384C37.2434 61.43 36.5158 64.4468 35.3107 67.3084L35.0088 68.0216L27.1632 63.9953L27.399 63.3914C30.7208 54.8585 27.8046 45.227 20.307 39.9726C20.1201 39.8403 19.9302 39.7167 19.7404 39.5873L19.1969 39.2335L23.0995 31.6353L23.7063 31.8711C23.9192 31.9545 24.1291 32.035 24.3448 32.1069C32.987 35.1353 42.5121 31.8855 47.5047 24.2154L47.8585 23.669L55.704 27.6953L55.2985 28.3567C53.6794 31.0026 51.6518 33.3551 49.2734 35.3424C46.432 37.7179 43.1966 39.501 39.6563 40.6399C39.455 40.706 39.2508 40.7693 39.0495 40.8297L65.0364 54.1654C64.9674 53.9641 64.9013 53.7627 64.8351 53.5614C63.6962 50.024 63.2562 46.3543 63.5294 42.6616C63.7595 39.57 64.4871 36.5531 65.6921 33.6916L65.9941 32.9784L73.8397 37.0047L73.6038 37.6115C70.2821 46.1444 73.1983 55.773 80.6988 61.0274C80.8828 61.1568 81.0698 61.2862 81.2625 61.4099L81.8031 61.7607Z" fill="#1A2BC2"/>
<path d="M50.5014 101C22.6538 101 0 78.3463 0 50.5014C0 22.6537 22.6538 0 50.5014 0C78.3491 0 101.003 22.6537 101.003 50.5014C101 78.3463 78.3463 101 50.5014 101ZM50.5014 6.03947C25.9841 6.03947 6.03947 25.9841 6.03947 50.5014C6.03947 75.0188 25.9841 94.9605 50.5014 94.9605C75.0159 94.9605 94.9634 75.0159 94.9634 50.5014C94.9634 25.987 75.0159 6.03947 50.5014 6.03947Z" fill="#1A2BC2"/>
<path d="M134.189 15.01V40.668H130.839V29.0354H117.771V40.668H114.421V15.01H117.771V26.2745H130.839V15.01H134.189Z" fill="#1A2BC2"/>
<path d="M155.075 20.495L142.927 50.1655H139.467L143.443 40.4471L135.307 20.495H139.025L145.357 36.8395L151.615 20.495H155.075Z" fill="#1A2BC2"/>
<path d="M159.584 24.213C160.247 23.0596 161.228 22.1025 162.529 21.3417C163.854 20.5564 165.388 20.1637 167.13 20.1637C168.922 20.1637 170.542 20.5932 171.99 21.4521C173.462 22.3111 174.616 23.5259 175.45 25.0965C176.284 26.6426 176.702 28.4464 176.702 30.5079C176.702 32.5448 176.284 34.3609 175.45 35.956C174.616 37.5512 173.462 38.7906 171.99 39.674C170.542 40.5575 168.922 40.9993 167.13 40.9993C165.413 40.9993 163.891 40.6189 162.566 39.8581C161.265 39.0728 160.271 38.1034 159.584 36.95V50.2391H156.234V20.495H159.584V24.213ZM173.278 30.5079C173.278 28.9863 172.971 27.6611 172.358 26.5322C171.744 25.4033 170.91 24.5443 169.855 23.9553C168.824 23.3663 167.683 23.0718 166.431 23.0718C165.204 23.0718 164.063 23.3786 163.007 23.9921C161.977 24.5811 161.142 25.4524 160.504 26.6058C159.891 27.7347 159.584 29.0477 159.584 30.5447C159.584 32.0662 159.891 33.4037 160.504 34.5572C161.142 35.6861 161.977 36.5573 163.007 37.1708C164.063 37.7598 165.204 38.0543 166.431 38.0543C167.683 38.0543 168.824 37.7598 169.855 37.1708C170.91 36.5573 171.744 35.6861 172.358 34.5572C172.971 33.4037 173.278 32.054 173.278 30.5079Z" fill="#1A2BC2"/>
<path d="M197.308 29.8084C197.308 30.4465 197.271 31.1214 197.198 31.8331H181.074C181.197 33.8209 181.872 35.3793 183.099 36.5082C184.35 37.6126 185.86 38.1648 187.627 38.1648C189.075 38.1648 190.277 37.8334 191.234 37.1708C192.216 36.4837 192.903 35.5756 193.296 34.4467H196.903C196.363 36.3855 195.284 37.9684 193.664 39.1955C192.044 40.398 190.032 40.9993 187.627 40.9993C185.712 40.9993 183.995 40.5698 182.473 39.7109C180.976 38.8519 179.798 37.6371 178.939 36.0665C178.08 34.4713 177.651 32.6307 177.651 30.5447C177.651 28.4587 178.068 26.6303 178.902 25.0597C179.737 23.489 180.902 22.2865 182.399 21.4521C183.921 20.5932 185.663 20.1637 187.627 20.1637C189.541 20.1637 191.234 20.5809 192.707 21.4153C194.179 22.2497 195.308 23.4032 196.093 24.8756C196.903 26.3236 197.308 27.9678 197.308 29.8084ZM193.848 29.109C193.848 27.8329 193.566 26.7408 193.001 25.8327C192.437 24.9002 191.664 24.2007 190.682 23.7345C189.725 23.2436 188.657 22.9982 187.479 22.9982C185.786 22.9982 184.338 23.5381 183.136 24.6179C181.958 25.6978 181.283 27.1948 181.111 29.109H193.848Z" fill="#1A2BC2"/>
<path d="M202.871 23.7713C203.46 22.6178 204.295 21.7221 205.374 21.084C206.479 20.4459 207.816 20.1269 209.387 20.1269V23.5872H208.503C204.749 23.5872 202.871 25.6241 202.871 29.698V40.668H199.521V20.495H202.871V23.7713Z" fill="#1A2BC2"/>
<path d="M212.775 17.2187C212.137 17.2187 211.597 16.9979 211.156 16.5561C210.714 16.1144 210.493 15.5745 210.493 14.9364C210.493 14.2983 210.714 13.7584 211.156 13.3167C211.597 12.8749 212.137 12.6541 212.775 12.6541C213.389 12.6541 213.904 12.8749 214.321 13.3167C214.763 13.7584 214.984 14.2983 214.984 14.9364C214.984 15.5745 214.763 16.1144 214.321 16.5561C213.904 16.9979 213.389 17.2187 212.775 17.2187ZM214.395 20.495V40.668H211.045V20.495H214.395Z" fill="#1A2BC2"/>
<path d="M226.694 40.9993C224.804 40.9993 223.086 40.5698 221.54 39.7109C220.018 38.8519 218.816 37.6371 217.932 36.0665C217.073 34.4713 216.644 32.6307 216.644 30.5447C216.644 28.4832 217.086 26.6671 217.969 25.0965C218.877 23.5013 220.104 22.2865 221.65 21.4521C223.197 20.5932 224.927 20.1637 226.841 20.1637C228.755 20.1637 230.485 20.5932 232.031 21.4521C233.577 22.2865 234.792 23.489 235.676 25.0597C236.584 26.6303 237.038 28.4587 237.038 30.5447C237.038 32.6307 236.572 34.4713 235.639 36.0665C234.731 37.6371 233.492 38.8519 231.921 39.7109C230.35 40.5698 228.608 40.9993 226.694 40.9993ZM226.694 38.0543C227.896 38.0543 229.025 37.7721 230.08 37.2076C231.136 36.6432 231.982 35.7965 232.62 34.6676C233.283 33.5387 233.614 32.1644 233.614 30.5447C233.614 28.9249 233.295 27.5506 232.657 26.4217C232.019 25.2928 231.185 24.4584 230.154 23.9185C229.123 23.3541 228.007 23.0718 226.804 23.0718C225.577 23.0718 224.448 23.3541 223.417 23.9185C222.411 24.4584 221.601 25.2928 220.988 26.4217C220.374 27.5506 220.067 28.9249 220.067 30.5447C220.067 32.1889 220.362 33.5755 220.951 34.7044C221.565 35.8333 222.374 36.68 223.381 37.2445C224.387 37.7844 225.491 38.0543 226.694 38.0543Z" fill="#1A2BC2"/>
<path d="M249.062 20.1269C251.517 20.1269 253.504 20.8754 255.026 22.3724C256.548 23.8449 257.308 25.98 257.308 28.7777V40.668H253.995V29.2563C253.995 27.2439 253.492 25.71 252.486 24.6548C251.48 23.5749 250.105 23.035 248.363 23.035C246.596 23.035 245.185 23.5872 244.13 24.6916C243.099 25.7959 242.583 27.4034 242.583 29.5139V40.668H239.234V20.495H242.583V23.3663C243.246 22.3356 244.142 21.538 245.271 20.9736C246.424 20.4091 247.688 20.1269 249.062 20.1269Z" fill="#1A2BC2"/>
<path d="M283.969 15.01V17.7341H276.975V40.668H273.625V17.7341H266.594V15.01H283.969Z" fill="#1A2BC2"/>
<path d="M304.29 29.8084C304.29 30.4465 304.253 31.1214 304.18 31.8331H288.056C288.179 33.8209 288.854 35.3793 290.081 36.5082C291.332 37.6126 292.842 38.1648 294.609 38.1648C296.057 38.1648 297.259 37.8334 298.216 37.1708C299.198 36.4837 299.885 35.5756 300.278 34.4467H303.885C303.345 36.3855 302.266 37.9684 300.646 39.1955C299.026 40.398 297.014 40.9993 294.609 40.9993C292.694 40.9993 290.977 40.5698 289.455 39.7109C287.958 38.8519 286.78 37.6371 285.921 36.0665C285.062 34.4713 284.633 32.6307 284.633 30.5447C284.633 28.4587 285.05 26.6303 285.884 25.0597C286.719 23.489 287.884 22.2865 289.381 21.4521C290.903 20.5932 292.645 20.1637 294.609 20.1637C296.523 20.1637 298.216 20.5809 299.689 21.4153C301.161 22.2497 302.29 23.4032 303.075 24.8756C303.885 26.3236 304.29 27.9678 304.29 29.8084ZM300.83 29.109C300.83 27.8329 300.548 26.7408 299.983 25.8327C299.419 24.9002 298.646 24.2007 297.664 23.7345C296.707 23.2436 295.639 22.9982 294.461 22.9982C292.768 22.9982 291.32 23.5381 290.118 24.6179C288.94 25.6978 288.265 27.1948 288.093 29.109H300.83Z" fill="#1A2BC2"/>
<path d="M305.252 30.5447C305.252 28.4587 305.669 26.6426 306.503 25.0965C307.338 23.5259 308.491 22.3111 309.964 21.4521C311.461 20.5932 313.166 20.1637 315.08 20.1637C317.559 20.1637 319.596 20.765 321.191 21.9675C322.811 23.17 323.878 24.8388 324.394 26.9739H320.786C320.443 25.7468 319.768 24.7775 318.762 24.0658C317.78 23.3541 316.553 22.9982 315.08 22.9982C313.166 22.9982 311.62 23.6608 310.442 24.9861C309.264 26.2868 308.675 28.1396 308.675 30.5447C308.675 32.9743 309.264 34.8517 310.442 36.1769C311.62 37.5021 313.166 38.1648 315.08 38.1648C316.553 38.1648 317.78 37.8212 318.762 37.134C319.743 36.4469 320.418 35.4652 320.786 34.1891H324.394C323.854 36.2505 322.774 37.9071 321.154 39.1587C319.535 40.3857 317.51 40.9993 315.08 40.9993C313.166 40.9993 311.461 40.5698 309.964 39.7109C308.491 38.8519 307.338 37.6371 306.503 36.0665C305.669 34.4958 305.252 32.6552 305.252 30.5447Z" fill="#1A2BC2"/>
<path d="M336.668 20.1269C338.189 20.1269 339.564 20.4582 340.791 21.1208C342.018 21.7589 342.975 22.7283 343.662 24.029C344.374 25.3296 344.73 26.9126 344.73 28.7777V40.668H341.416V29.2563C341.416 27.2439 340.913 25.71 339.907 24.6548C338.901 23.5749 337.527 23.035 335.784 23.035C334.017 23.035 332.606 23.5872 331.551 24.6916C330.52 25.7959 330.005 27.4034 330.005 29.5139V40.668H326.655V13.4271H330.005V23.3663C330.667 22.3356 331.575 21.538 332.729 20.9736C333.907 20.4091 335.22 20.1269 336.668 20.1269Z" fill="#1A2BC2"/>
<path d="M134.189 62.463V88.1209H130.839V76.4883H117.771V88.1209H114.421V62.463H117.771V73.7274H130.839V62.463H134.189Z" fill="#1A2BC2"/>
<path d="M155.591 67.948V88.1209H152.241V85.1391C151.603 86.1699 150.707 86.9797 149.554 87.5687C148.425 88.1332 147.173 88.4154 145.799 88.4154C144.228 88.4154 142.817 88.0964 141.565 87.4583C140.314 86.7957 139.32 85.814 138.584 84.5133C137.872 83.2126 137.516 81.6297 137.516 79.7646V67.948H140.829V79.3229C140.829 81.3107 141.332 82.8445 142.338 83.9244C143.345 84.9796 144.719 85.5073 146.461 85.5073C148.253 85.5073 149.664 84.9551 150.695 83.8507C151.725 82.7464 152.241 81.1389 152.241 79.0284V67.948H155.591Z" fill="#1A2BC2"/>
<path d="M162.388 71.7028C163.075 70.5002 164.081 69.5186 165.407 68.7578C166.732 67.997 168.241 67.6166 169.934 67.6166C171.751 67.6166 173.383 68.0461 174.83 68.9051C176.278 69.764 177.42 70.9788 178.254 72.5494C179.088 74.0956 179.506 75.8993 179.506 77.9608C179.506 79.9977 179.088 81.8138 178.254 83.409C177.42 85.0042 176.266 86.2435 174.794 87.127C173.346 88.0105 171.726 88.4522 169.934 88.4522C168.192 88.4522 166.658 88.0718 165.333 87.3111C164.032 86.5503 163.051 85.5809 162.388 84.4029V88.1209H159.038V60.8801H162.388V71.7028ZM176.082 77.9608C176.082 76.4392 175.775 75.114 175.162 73.9851C174.548 72.8562 173.714 71.9973 172.659 71.4083C171.628 70.8193 170.487 70.5248 169.235 70.5248C168.008 70.5248 166.867 70.8316 165.812 71.4451C164.781 72.0341 163.946 72.9053 163.308 74.0587C162.695 75.1876 162.388 76.5006 162.388 77.9976C162.388 79.5192 162.695 80.8567 163.308 82.0101C163.946 83.139 164.781 84.0102 165.812 84.6238C166.867 85.2128 168.008 85.5073 169.235 85.5073C170.487 85.5073 171.628 85.2128 172.659 84.6238C173.714 84.0102 174.548 83.139 175.162 82.0101C175.775 80.8567 176.082 79.5069 176.082 77.9608Z" fill="#1A2BC2"/>
<path d="M349.035 15.7779L347.704 12.7712H348.243L349.174 14.9772L350.106 12.7712H350.645L349.313 15.7779H349.035ZM347.605 15.7779V12.7712H348.128V15.7779H347.605ZM350.22 15.7779V12.7712H350.743V15.7779H350.22ZM345.645 15.7779V13.0327H346.168V15.7779H345.645ZM344.73 13.2288V12.7712H347.083V13.2288H344.73Z" fill="#1A2BC2"/>
</svg>
